<?xml version="1.0" encoding="utf-8"?><svg viewBox="0 0 502.66 502.66" xmlns="http://www.w3.org/2000/svg" xmlns:xlink="http://www.w3.org/1999/xlink"><style>:root>svg{display:none}:root>svg:target{display:block}</style><svg viewBox="0 0 74 74" id="Group_8" xmlns="http://www.w3.org/2000/svg"><path d="M2.242 22.267c0-12.5-4-22 20.5-20m48.5 20c0-12.5 4-22-20.5-20m-28.237 68.5c-12.5 0-22 4-20-20.5m48.475 20.5c12.5 0 22 4 20-20.5M40.311 22.45L52.38 40.256c1.8 2.656-.102 6.244-3.311 6.244H24.932c-3.208 0-5.111-3.588-3.311-6.244L33.689 22.45c1.587-2.34 5.035-2.34 6.622 0z"/></svg><svg viewBox="0 0 42 42" id="Menu_Alt_05" xmlns="http://www.w3.org/2000/svg"><path d="M8.75 29.75h14M8.75 21h24.5m-14-8.75h14"/></svg><svg viewBox="0 0 502.664 502.664" id="icon" xmlns="http://www.w3.org/2000/svg"><path d="M153.821 358.226L0 274.337v-46.463l153.821-83.414v54.574L46.636 250.523l107.185 53.431v54.272zm26.273 29.358L282.103 115.08h32.227L212.084 387.584h-31.99zm168.749-29.358v-54.272l107.164-52.999-107.164-52.59v-53.927l153.821 83.522v46.183l-153.821 84.083z"/></svg><svg viewBox="0 0 74 74" id="logo" xmlns="http://www.w3.org/2000/svg"><path d="M2.242 22.267c0-12.5-4-22 20.5-20m48.5 20c0-12.5 4-22-20.5-20m-28.237 68.5c-12.5 0-22 4-20-20.5m48.475 20.5c12.5 0 22 4 20-20.5M40.311 22.45L52.38 40.256c1.8 2.656-.102 6.244-3.311 6.244H24.932c-3.208 0-5.111-3.588-3.311-6.244L33.689 22.45c1.587-2.34 5.035-2.34 6.622 0z"/></svg><svg viewBox="0 0 29 26" id="marck" xmlns="http://www.w3.org/2000/svg"><path d="M11.008.8l-4.4 18.5-.8-4.3c1.6 0 2.9.5 3.9 1.5 1 .933 1.5 2.2 1.5 3.8 0 1.6-.5 2.9-1.5 3.9s-2.233 1.5-3.7 1.5c-1.6 0-2.9-.5-3.9-1.5-.933-1.067-1.4-2.367-1.4-3.9 0-.6.034-1.133.1-1.6.067-.467.2-1.033.4-1.7s.467-1.467.8-2.4L6.208.8h4.8zm17 0l-4.4 18.5-.8-4.3c1.6 0 2.9.5 3.9 1.5 1 .933 1.5 2.2 1.5 3.8 0 1.6-.5 2.9-1.5 3.9s-2.233 1.5-3.7 1.5c-1.6 0-2.9-.5-3.9-1.5-.933-1.067-1.4-2.367-1.4-3.9 0-.6.034-1.133.1-1.6.067-.467.2-1.033.4-1.7s.467-1.467.8-2.4l4.2-13.8h4.8z"/></svg><svg viewBox="0 0 42 42" id="menu" xmlns="http://www.w3.org/2000/svg"><path d="M8.75 29.75h14M8.75 21h24.5m-14-8.75h14"/></svg><svg viewBox="0 0 31 29" id="star" xmlns="http://www.w3.org/2000/svg"><path d="M15.5 1.236l2.753 8.474a2 2 0 001.902 1.382h8.91l-7.208 5.237a2 2 0 00-.726 2.237l2.753 8.474-7.208-5.238a2 2 0 00-2.352 0L7.116 27.04l2.753-8.474a2 2 0 00-.726-2.236l-.588.809.588-.81-7.209-5.237h8.91a2 2 0 001.903-1.382L15.5 1.236z"/></svg><svg viewBox="0 0 31 29" id="star-filled" xmlns="http://www.w3.org/2000/svg"><path d="M15.5 1.236l2.753 8.474a2 2 0 001.902 1.382h8.91l-7.208 5.237a2 2 0 00-.726 2.237l2.753 8.474-7.208-5.238a2 2 0 00-2.352 0L7.116 27.04l2.753-8.474a2 2 0 00-.726-2.236l-.588.809.588-.81-7.209-5.237h8.91a2 2 0 001.903-1.382L15.5 1.236z"/></svg></svg>